<svg xmlns="http://www.w3.org/2000/svg" viewBox="0 0 600 400" width="600" height="400" role="img" aria-hidden="true" focusable="false" xmlns:c2pa="http://c2pa.org/manifest"><metadata><c2pa:manifest>AAAWgmp1bWIAAAAeanVtZGMycGEAEQAQgAAAqgA4m3EDYzJwYQAAABZcanVtYgAAAEdqdW1kYzJtYQARABCAAACqADibcQN1cm46YzJwYTozYTI1NWU3NC0wYzkwLTQzM2EtOWJhYi02MzFiNWI1ZjYzMjcAAAADl2p1bWIAAAApanVtZGMyYXMAEQAQgAAAqgA4m3EDYzJwYS5hc3NlcnRpb25zAAAAALxqdW1iAAAARGp1bWRjYm9yABEAEIAAAKoAOJtxE2MycGEuaW5ncmVkaWVudC52MwAAAAAYYzJzaDAwGg7rLYQhT1sP5sWH0lgAAABwY2JvcqNpZGM6Zm9ybWF0bWltYWdlL3N2Zyt4bWxqaW5zdGFuY2VJRHgseG1wOmlpZDo5ZDAxYWRjMy04NDMwLTQ3MzMtYmZhZS0wOTU0MWJhYzU0NDdscmVsYXRpb25zaGlwaHBhcmVudE9mAAAB4mp1bWIAAABBanVtZGNib3IAEQAQgAAAqgA4m3ETYzJwYS5hY3Rpb25zLnYyAAAAABhjMnNofgLTsFLvEvGK2fIvoYmJHAAAAZljYm9yomdhY3Rpb25zgqJmYWN0aW9ua2MycGEub3BlbmVkanBhcmFtZXRlcnOha2luZ3JlZGllbnRzgaJjdXJseC1zZWxmI2p1bWJmPWMycGEuYXNzZXJ0aW9ucy9jMnBhLmluZ3JlZGllbnQudjNkaGFzaFggGZHeS9Z6+2iRffmfE+bsh18L7cwOIcWMLSAHNpLQNnGkZmFjdGlvbngdY29tLmFudGhyb3BpYy5jbGF1ZGUucHJvdmlkZWRqcGFyYW1ldGVyc6F4H2NvbS5hbnRocm9waWMub3JpZ2luLWNvbmZpZGVuY2VndW5rbm93bmtkZXNjcmlwdGlvbnhmQ2xhdWRlIHByb3ZpZGVkIHRoaXMgZmlsZSBhdCB0aGUgcmVxdWVzdCBvZiBhIHVzZXIgYW5kIG1heSBoYXZlIGNyZWF0ZWQgb3IgbW9kaWZpZWQgdGhlIGZpbGUgY29udGVudHMubXNvZnR3YXJlQWdlbnShZG5hbWVmQ2xhdWRlcmFsbEFjdGlvbnNJbmNsdWRlZPUAAADIanVtYgAAAEBqdW1kY2JvcgARABCAAACqADibcRNjMnBhLmhhc2guZGF0YQAAAAAYYzJzaJKmeLwTAlN7PvtBwKlGPT8AAACAY2JvcqVjYWxnZnNoYTI1NmNwYWRNAAAAAAAAAAAAAAAAAGRoYXNoWCCCS/6e8i31BnVcBnb4etOcke0Vsrn6cBjP+zIqj8VsDGRuYW1lbmp1bWJmIG1hbmlmZXN0amV4Y2x1c2lvbnOBomVzdGFydBjGZmxlbmd0aBkeBAAAAj5qdW1iAAAAJ2p1bWRjMmNsABEAEIAAAKoAOJtxA2MycGEuY2xhaW0udjIAAAACD2Nib3KlY2FsZ2ZzaGEyNTZpc2lnbmF0dXJleE1zZWxmI2p1bWJmPS9jMnBhL3VybjpjMnBhOjNhMjU1ZTc0LTBjOTAtNDMzYS05YmFiLTYzMWI1YjVmNjMyNy9jMnBhLnNpZ25hdHVyZWppbnN0YW5jZUlEeCx4bXA6aWlkOjRiMzM2NmJkLTE1MzgtNDQ2OS04YjYxLTdiZGU3OGNiZThjMHJjcmVhdGVkX2Fzc2VydGlvbnODomN1cmx4LXNlbGYjanVtYmY9YzJwYS5hc3NlcnRpb25zL2MycGEuaW5ncmVkaWVudC52M2RoYXNoWCAZkd5L1nr7aJF9+Z8T5uyHXwvtzA4hxYwtIAc2ktA2caJjdXJseCpzZWxmI2p1bWJmPWMycGEuYXNzZXJ0aW9ucy9jMnBhLmFjdGlvbnMudjJkaGFzaFggewBACfeW2Pi26hmXRDBe2WKPpe0/mQgWE0/b6D/HDL2iY3VybHgpc2VsZiNqdW1iZj1jMnBhLmFzc2VydGlvbnMvYzJwYS5oYXNoLmRhdGFkaGFzaFggkgXLl1cArztnMlb3/LMlSjyh1ua7dzLHZHoeUfdW96J0Y2xhaW1fZ2VuZXJhdG9yX2luZm+jZG5hbWVvQW50aHJvcGljIEZpbGVzZ3ZlcnNpb25lMS4wLjBrc3BlY1ZlcnNpb25lMi40LjAAABA4anVtYgAAAChqdW1kYzJjcwARABCAAACqADibcQNjMnBhLnNpZ25hdHVyZQAAABAIY2JvctKEWQISogEmGCFZAgowggIGMIIBjaADAgECAhRA5aAK7sI50L64g/oGQgU9Z1UTADAKBggqhkjOPQQDAzBJMRcwFQYDVQQKEw5BbnRocm9waWMsIFBCQzEuMCwGA1UEAxMlQW50aHJvcGljIENvbnRlbnQgQ3JlZGVudGlhbHMgUm9vdCBDQTAeFw0yNjA4MDcxODQzNTZaFw0yODA4MDYxOTQzNTZaMEQxFzAVBgNVBAoTDkFudGhyb3BpYywgUEJDMSkwJwYDVQQDEyBBbnRocm9waWMgQ2xhdWRlIENvbnRlbnQgU2lnbmluZzBZMBMGByqGSM49AgEGCCqGSM49AwEHA0IABJh6CmvLUBgFFNU0vUKlOVtE6djd17L5SuwX0LemFisBM3dkd/3cyjxFA3Qo5S46fX0/ihY0VZ7mfb9KF703t5OjWDBWMA4GA1UdDwEB/wQEAwIHgDAVBgNVHSUEDjAMBgorBgEEAYPoXgIBMAwGA1UdEwEB/wQCMAAwHwYDVR0jBBgwFoAUzlHiBIFOZFsj+OPEz5o+nMHXXMIwCgYIKoZIzj0EAwMDZwAwZAIwMXMdFJ4BetLLVY7ORuE9noqbbAZOZn/aArXyTwFAZfKrPzxF2vPoJNf1+UCdg1XGAjBwX1zd9WGqYkqmL5SFqw1QySjr1zJfpJM9+1rdDwSPLMOPOjKuiXjoU/pUUeG9RwmhY3BhZFkNngAAAAAAAAAAAAAAAAAAAAAAAAAAAAAAAAAAAAAAAAAAAAAAAAAAAAAAAAAAAAAAAAAAAAAAAAAAAAAAAAAAAAAAAAAAAAAAAAAAAAAAAAAAAAAAAAAAAAAAAAAAAAAAAAAAAAAAAAAAAAAAAAAAAAAAAAAAAAAAAAAAAAAAAAAAAAAAAAAAAAAAAAAAAAAAAAAAAAAAAAAAAAAAAAAAAAAAAAAAAAAAAAAAAAAAAAAAAAAAAAAAAAAAAAAAAAAAAAAAAAAAAAAAAAAAAAAAAAAAAAAAAAAAAAAAAAAAAAAAAAAAAAAAAAAAAAAAAAAAAAAAAAAAAAAAAAAAAAAAAAAAAAAAAAAAAAAAAAAAAAAAAAAAAAAAAAAAAAAAAAAAAAAAAAAAAAAAAAAAAAAAAAAAAAAAAAAAAAAAAAAAAAAAAAAAAAAAAAAAAAAAAAAAAAAAAAAAAAAAAAAAAAAAAAAAAAAAAAAAAAAAAAAAAAAAAAAAAAAAAAAAAAAAAAAAAAAAAAAAAAAAAAAAAAAAAAAAAAAAAAAAAAAAAAAAAAAAAAAAAAAAAAAAAAAAAAAAAAAAAAAAAAAAAAAAAAAAAAAAAAAAAAAAAAAAAAAAAAAAAAAAAAAAAAAAAAAAAAAAAAAAAAAAAAAAAAAAAAAAAAAAAAAAAAAAAAAAAAAAAAAAAAAAAAAAAAAAAAAAAAAAAAAAAAAAAAAAAAAAAAAAAAAAAAAAAAAAAAAAAAAAAAAAAAAAAAAAAAAAAAAAAAAAAAAAAAAAAAAAAAAAAAAAAAAAAAAAAAAAAAAAAAAAAAAAAAAAAAAAAAAAAAAAAAAAAAAAAAAAAAAAAAAAAAAAAAAAAAAAAAAAAAAAAAAAAAAAAAAAAAAAAAAAAAAAAAAAAAAAAAAAAAAAAAAAAAAAAAAAAAAAAAAAAAAAAAAAAAAAAAAAAAAAAAAAAAAAAAAAAAAAAAAAAAAAAAAAAAAAAAAAAAAAAAAAAAAAAAAAAAAAAAAAAAAAAAAAAAAAAAAAAAAAAAAAAAAAAAAAAAAAAAAAAAAAAAAAAAAAAAAAAAAAAAAAAAAAAAAAAAAAAAAAAAAAAAAAAAAAAAAAAAAAAAAAAAAAAAAAAAAAAAAAAAAAAAAAAAAAAAAAAAAAAAAAAAAAAAAAAAAAAAAAAAAAAAAAAAAAAAAAAAAAAAAAAAAAAAAAAAAAAAAAAAAAAAAAAAAAAAAAAAAAAAAAAAAAAAAAAAAAAAAAAAAAAAAAAAAAAAAAAAAAAAAAAAAAAAAAAAAAAAAAAAAAAAAAAAAAAAAAAAAAAAAAAAAAAAAAAAAAAAAAAAAAAAAAAAAAAAAAAAAAAAAAAAAAAAAAAAAAAAAAAAAAAAAAAAAAAAAAAAAAAAAAAAAAAAAAAAAAAAAAAAAAAAAAAAAAAAAAAAAAAAAAAAAAAAAAAAAAAAAAAAAAAAAAAAAAAAAAAAAAAAAAAAAAAAAAAAAAAAAAAAAAAAAAAAAAAAAAAAAAAAAAAAAAAAAAAAAAAAAAAAAAAAAAAAAAAAAAAAAAAAAAAAAAAAAAAAAAAAAAAAAAAAAAAAAAAAAAAAAAAAAAAAAAAAAAAAAAAAAAAAAAAAAAAAAAAAAAAAAAAAAAAAAAAAAAAAAAAAAAAAAAAAAAAAAAAAAAAAAAAAAAAAAAAAAAAAAAAAAAAAAAAAAAAAAAAAAAAAAAAAAAAAAAAAAAAAAAAAAAAAAAAAAAAAAAAAAAAAAAAAAAAAAAAAAAAAAAAAAAAAAAAAAAAAAAAAAAAAAAAAAAAAAAAAAAAAAAAAAAAAAAAAAAAAAAAAAAAAAAAAAAAAAAAAAAAAAAAAAAAAAAAAAAAAAAAAAAAAAAAAAAAAAAAAAAAAAAAAAAAAAAAAAAAAAAAAAAAAAAAAAAAAAAAAAAAAAAAAAAAAAAAAAAAAAAAAAAAAAAAAAAAAAAAAAAAAAAAAAAAAAAAAAAAAAAAAAAAAAAAAAAAAAAAAAAAAAAAAAAAAAAAAAAAAAAAAAAAAAAAAAAAAAAAAAAAAAAAAAAAAAAAAAAAAAAAAAAAAAAAAAAAAAAAAAAAAAAAAAAAAAAAAAAAAAAAAAAAAAAAAAAAAAAAAAAAAAAAAAAAAAAAAAAAAAAAAAAAAAAAAAAAAAAAAAAAAAAAAAAAAAAAAAAAAAAAAAAAAAAAAAAAAAAAAAAAAAAAAAAAAAAAAAAAAAAAAAAAAAAAAAAAAAAAAAAAAAAAAAAAAAAAAAAAAAAAAAAAAAAAAAAAAAAAAAAAAAAAAAAAAAAAAAAAAAAAAAAAAAAAAAAAAAAAAAAAAAAAAAAAAAAAAAAAAAAAAAAAAAAAAAAAAAAAAAAAAAAAAAAAAAAAAAAAAAAAAAAAAAAAAAAAAAAAAAAAAAAAAAAAAAAAAAAAAAAAAAAAAAAAAAAAAAAAAAAAAAAAAAAAAAAAAAAAAAAAAAAAAAAAAAAAAAAAAAAAAAAAAAAAAAAAAAAAAAAAAAAAAAAAAAAAAAAAAAAAAAAAAAAAAAAAAAAAAAAAAAAAAAAAAAAAAAAAAAAAAAAAAAAAAAAAAAAAAAAAAAAAAAAAAAAAAAAAAAAAAAAAAAAAAAAAAAAAAAAAAAAAAAAAAAAAAAAAAAAAAAAAAAAAAAAAAAAAAAAAAAAAAAAAAAAAAAAAAAAAAAAAAAAAAAAAAAAAAAAAAAAAAAAAAAAAAAAAAAAAAAAAAAAAAAAAAAAAAAAAAAAAAAAAAAAAAAAAAAAAAAAAAAAAAAAAAAAAAAAAAAAAAAAAAAAAAAAAAAAAAAAAAAAAAAAAAAAAAAAAAAAAAAAAAAAAAAAAAAAAAAAAAAAAAAAAAAAAAAAAAAAAAAAAAAAAAAAAAAAAAAAAAAAAAAAAAAAAAAAAAAAAAAAAAAAAAAAAAAAAAAAAAAAAAAAAAAAAAAAAAAAAAAAAAAAAAAAAAAAAAAAAAAAAAAAAAAAAAAAAAAAAAAAAAAAAAAAAAAAAAAAAAAAAAAAAAAAAAAAAAAAAAAAAAAAAAAAAAAAAAAAAAAAAAAAAAAAAAAAAAAAAAAAAAAAAAAAAAAAAAAAAAAAAAAAAAAAAAAAAAAAAAAAAAAAAAAAAAAAAAAAAAAAAAAAAAAAAAAAAAAAAAAAAAAAAAAAAAAAAAAAAAAAAAAAAAAAAAAAAAAAAAAAAAAAAAAAAAAAAAAAAAAAAAAAAAAAAAAAAAAAAAAAAAAAAAAAAAAAAAAAAAAAAAAAAAAAAAAAAAAAAAAAAAAAAAAAAAAAAAAAAAAAAAAAAAAAAAAAAAAAAAAAAAAAAAAAAAAAAAAAAAAAAAAAAAAAAAAAAAAAAAAAAAAAAAAAAAAAAAAAAAAAAAAAAAAAAAAAAAAAAAAAAAAAAAAAAAAAAAAAAAAAAAAAAAAAAAAAAAAAAAAAAAAAAAAAAAAAAAAAAAAAAAAAAAAAAAAAAAAAAAAAAAAAAAAAAAAAAAAAAAAAAAAAAAAAAAAAAAAAAAAAAAAAAAAAAAAAAAAAAAAAAAAAAAAAAAAAAAAAAAAAAAAAAAAAAAAAAAAAAAAAAAAAAAAAAAAAAAAAAAAAAAAAAAAAAAAAAAAAAAAAAAAAAAAAAAAAAAAAAAAAAAAAAAAAAAAAAAAAAAAAAAAAAAAAAAAAAAAAAAAAAAAAAAAAAAAAAAAAAAAAAAAAAAAAAAAAAAAAAAAAAAAAAAAAAAAAAAAAAAAAAAAAAAAAAAAAAAAAAAAAAAAAAAAAAAAAAAAAAAAAAAAAAAAAAAAAAAAAAAAAAAAAAAAAAAAAAAAAAAAAAAAAAAAAAAAAAAAAAAAAAAAAAAAAAAAAAAAAAAAAAAAAAAAAAAAAAAAAAAAAAAAAAAAAAAAAAAAAAAAAAAAAAAAAAAAAAAAAAAAAAAAAAAAAAAAAAAAAAAAAAAAAAAAAAAAAAAAAAAAAAAAAAAAAAAAAAAAAAAAAAAAAAAAAAAAAAAAAAAAAAAAAAAAAAAAAAAAAAAAAAAAAAAAAAAAAAAAAAAAAAAAAAAAAAAAAAAAAAAAAAAAAAAAAAAAAAAAAAAAAAAAAAAAAAAAAAAAAAAAAAAAAAAAAAAAAAAAAAAAAAAAAAAAAAAAAAAAAAAAAAAAAAAAAAAAAAAAAAAAAAAAAAAAAAAAAAAAAAAAAAAAAAAAAAAAAAAAAAAAAAAAAAAAAAAAAAAAAAAAAAAAAAAAAAAAAAAAAAAAAAAAAAAAAAAAAAAAAAAAAAAAAAAAAAAAAAAAAAAAAAAAAAAAAAAAAAAAAAAAAAAAAAAAAAAAAAAAAAAAAAAAAAAAAAAAAAAAAAAAAAAAAAAAAAAAAAAAAAAAAAAAAAAAAAAAAAAAAAAAAAAAAAAAAAAAAAAAAAAAAAAAAAAAAAAAAAAAAAAAAAAAAAAAAAAAAAAAAAAAAAAAAAAAAAAAAAAAAAAAAAAAAAAAAAAAAAAAAAAAAAAAAAAAAAAAAAAAAAAAAAAAAAAAAAAAAAAAAAAAAAAAAAAAAAAAAAAAAAAAAAAAAAAAAAAAAAAAAAAAAAAAAAAAAAAAAAAAAAAAAAAAAAAAAAAAAAAAAAAAAAAAAAAAAAAAAAAAAAAAAAAAAAAAAAAAAAAAAAAAAAAAAAAAAAAAAAAAAAAAAAPZYQOQJRY7s/LlOkpoIkg9EC7zyP7oegOA+QbXKC+Ixq5jOwrCOWETlbQz3VamrjiA0z4ewdlET4NCzEvlcbmQ17Ws=</c2pa:manifest></metadata>
<defs></defs>
<rect width="600" height="400" fill="#e4f3ec"/>
<circle cx="520" cy="70" r="28" fill="#f2b233"/><line x1="520" y1="32" x2="520" y2="18" stroke="#f2b233" stroke-width="6" stroke-linecap="round" transform="rotate(0 520 70)"/><line x1="520" y1="32" x2="520" y2="18" stroke="#f2b233" stroke-width="6" stroke-linecap="round" transform="rotate(45 520 70)"/><line x1="520" y1="32" x2="520" y2="18" stroke="#f2b233" stroke-width="6" stroke-linecap="round" transform="rotate(90 520 70)"/><line x1="520" y1="32" x2="520" y2="18" stroke="#f2b233" stroke-width="6" stroke-linecap="round" transform="rotate(135 520 70)"/><line x1="520" y1="32" x2="520" y2="18" stroke="#f2b233" stroke-width="6" stroke-linecap="round" transform="rotate(180 520 70)"/><line x1="520" y1="32" x2="520" y2="18" stroke="#f2b233" stroke-width="6" stroke-linecap="round" transform="rotate(225 520 70)"/><line x1="520" y1="32" x2="520" y2="18" stroke="#f2b233" stroke-width="6" stroke-linecap="round" transform="rotate(270 520 70)"/><line x1="520" y1="32" x2="520" y2="18" stroke="#f2b233" stroke-width="6" stroke-linecap="round" transform="rotate(315 520 70)"/><rect y="300" width="600" height="100" fill="#2e6b57"/><rect x="30" y="200" width="90" height="100" fill="#ffffff" stroke="#d3e0e2" stroke-width="3"/><path d="M22 200 L75.0 158 L128 200 Z" fill="#1b4b5a"/><rect x="64.0" y="260" width="22" height="40" rx="3" fill="#1b4b5a" opacity=".85"/><rect x="40" y="222" width="20" height="20" rx="3" fill="#f2b233" opacity=".8"/><rect x="130" y="170" width="100" height="130" fill="#fdf1d3" stroke="#d3e0e2" stroke-width="3"/><path d="M122 170 L180.0 128 L238 170 Z" fill="#2e6b57"/><rect x="169.0" y="260" width="22" height="40" rx="3" fill="#1b4b5a" opacity=".85"/><rect x="140" y="192" width="20" height="20" rx="3" fill="#f2b233" opacity=".8"/><rect x="240" y="205" width="80" height="95" fill="#ffffff" stroke="#d3e0e2" stroke-width="3"/><path d="M232 205 L280.0 163 L328 205 Z" fill="#dd9b16"/><rect x="269.0" y="260" width="22" height="40" rx="3" fill="#1b4b5a" opacity=".85"/><rect x="250" y="227" width="20" height="20" rx="3" fill="#f2b233" opacity=".8"/><rect x="330" y="175" width="100" height="125" fill="#e8edf0" stroke="#d3e0e2" stroke-width="3"/><path d="M322 175 L380.0 133 L438 175 Z" fill="#1b4b5a"/><rect x="369.0" y="260" width="22" height="40" rx="3" fill="#1b4b5a" opacity=".85"/><rect x="340" y="197" width="20" height="20" rx="3" fill="#f2b233" opacity=".8"/><rect x="440" y="200" width="90" height="100" fill="#fdf1d3" stroke="#d3e0e2" stroke-width="3"/><path d="M432 200 L485.0 158 L538 200 Z" fill="#123542"/><rect x="474.0" y="260" width="22" height="40" rx="3" fill="#1b4b5a" opacity=".85"/><rect x="450" y="222" width="20" height="20" rx="3" fill="#f2b233" opacity=".8"/><g transform="translate(120 372) scale(1.15)"><circle cx="-22" cy="-98" r="15" fill="#2b1b12"/><circle cx="-12" cy="-116" r="15" fill="#2b1b12"/><circle cx="8" cy="-118" r="15" fill="#2b1b12"/><circle cx="22" cy="-100" r="15" fill="#2b1b12"/><circle cx="0" cy="-106" r="20" fill="#2b1b12"/><path d="M-50 0 C-50 -46 -32 -64 0 -64 C32 -64 50 -46 50 0 Z" fill="#2e6b57"/><rect x="-8" y="-72" width="16" height="14" rx="6" fill="#d9a273"/><circle cx="0" cy="-92" r="26" fill="#d9a273"/><path d="M-26 -98 C-24 -118 24 -118 26 -98 C12 -108 -12 -108 -26 -98 Z" fill="#2b1b12"/><circle cx="-9" cy="-90" r="2.6" fill="#123542"/><circle cx="9" cy="-90" r="2.6" fill="#123542"/><path d="M-8 -80 Q0 -72 8 -80" fill="none" stroke="#123542" stroke-width="2.6" stroke-linecap="round"/></g><g transform="translate(300 372) scale(1.15)"><path d="M-50 0 C-50 -46 -32 -64 0 -64 C32 -64 50 -46 50 0 Z" fill="#1b4b5a"/><rect x="-8" y="-72" width="16" height="14" rx="6" fill="#f1c9a5"/><circle cx="0" cy="-92" r="26" fill="#f1c9a5"/><path d="M-27 -94 C-30 -124 30 -124 27 -94 C20 -108 -20 -108 -27 -94 Z" fill="#4a2c1a"/><circle cx="-9" cy="-90" r="2.6" fill="#123542"/><circle cx="9" cy="-90" r="2.6" fill="#123542"/><path d="M-8 -80 Q0 -72 8 -80" fill="none" stroke="#123542" stroke-width="2.6" stroke-linecap="round"/></g><g transform="translate(480 372) scale(1.15)"><path d="M-30 -96 C-34 -128 34 -128 30 -96 L32 -52 L-32 -52 Z" fill="#1c1c1c"/><path d="M-50 0 C-50 -46 -32 -64 0 -64 C32 -64 50 -46 50 0 Z" fill="#dd9b16"/><rect x="-8" y="-72" width="16" height="14" rx="6" fill="#6f452b"/><circle cx="0" cy="-92" r="26" fill="#6f452b"/><path d="M-27 -94 C-28 -122 28 -122 27 -94 C14 -108 -8 -106 -27 -94 Z" fill="#1c1c1c"/><circle cx="-9" cy="-90" r="2.6" fill="#123542"/><circle cx="9" cy="-90" r="2.6" fill="#123542"/><path d="M-8 -80 Q0 -72 8 -80" fill="none" stroke="#123542" stroke-width="2.6" stroke-linecap="round"/></g><path d="M120 238 Q210 170 300 238 M300 238 Q390 170 480 238" fill="none" stroke="#f2b233" stroke-width="5" stroke-dasharray="2 12" stroke-linecap="round"/><path transform="translate(210 176) scale(0.7)" d="M0 12 C-30 -8 -22 -34 -8 -34 C-2 -34 0 -28 0 -26 C0 -28 2 -34 8 -34 C22 -34 30 -8 0 12 Z" fill="#c0392b"/><path transform="translate(390 176) scale(0.7)" d="M0 12 C-30 -8 -22 -34 -8 -34 C-2 -34 0 -28 0 -26 C0 -28 2 -34 8 -34 C22 -34 30 -8 0 12 Z" fill="#c0392b"/>
</svg>
